<svg width="84" height="24" viewBox="0 0 84 24" fill="none" xmlns="http://www.w3.org/2000/svg">
<g clip-path="url(#clip0_101_232)">
<path d="M11.8063 7.3333H9.70361V2.45863C9.70361 2.09937 9.80928 1.8176 10.0171 1.61331C10.2249 1.40903 10.5067 1.30688 10.8554 1.30688C11.0561 1.30688 11.2428 1.32097 11.4154 1.34915C11.5915 1.37733 11.7218 1.40198 11.8063 1.41959V7.3333ZM9.70361 3.89567H11.8063V9.83756C11.7218 9.85517 11.5915 9.87982 11.4154 9.908C11.2393 9.93618 11.0526 9.95027 10.8554 9.95027C10.5031 9.95027 10.2249 9.8446 10.0171 9.63679C9.80928 9.42899 9.70361 9.14721 9.70361 8.79852V3.89567ZM10.8554 3.01161V1.30688H15.5469C15.6138 1.39142 15.6666 1.50413 15.7089 1.64853C15.7512 1.78942 15.7723 1.94792 15.7723 2.11698C15.7723 2.41989 15.7054 2.64531 15.5715 2.79324C15.4377 2.94117 15.2545 3.01513 15.0186 3.01513H10.8554V3.01161ZM10.8554 6.38232V4.67759H15.1489C15.2052 4.77269 15.2581 4.89244 15.3038 5.03333C15.3496 5.17422 15.3743 5.33271 15.3743 5.50178C15.3743 5.80468 15.3038 6.02658 15.1665 6.17099C15.0291 6.31187 14.846 6.38584 14.6205 6.38584H10.8554V6.38232ZM10.8554 9.95027V8.23145H15.6173C15.6737 8.31598 15.7265 8.43574 15.7723 8.58719C15.8181 8.73864 15.8427 8.90066 15.8427 9.06973C15.8427 9.37263 15.7758 9.59453 15.6385 9.73894C15.5011 9.87982 15.3179 9.95379 15.0925 9.95379H10.8589L10.8554 9.95027Z" fill="#FCFDFE"/>
<path d="M23.7005 5.50149V6.37498C23.7005 6.62858 23.4927 6.83639 23.2391 6.83639H22.0451C21.7915 6.83639 21.5837 6.62858 21.5837 6.37498V5.57193C21.5837 5.22324 21.4816 4.9626 21.2773 4.79705C21.073 4.63151 20.8053 4.54698 20.4742 4.54698C20.2382 4.54698 20.0199 4.57868 19.8191 4.63856C19.7311 4.66673 19.6465 4.69491 19.5655 4.72661C19.3894 4.79705 19.2802 4.96612 19.2802 5.15632V6.37146C19.2802 6.62506 19.0724 6.83286 18.8188 6.83286H17.6389C17.3853 6.83286 17.1775 6.62506 17.1775 6.37146V4.61742C17.1775 4.38144 17.2268 4.1842 17.3254 4.02922C17.424 3.87425 17.5684 3.73336 17.7586 3.61009C18.0616 3.40228 18.449 3.22969 18.9245 3.09233C19.3965 2.95496 19.9177 2.88452 20.4883 2.88452C21.5133 2.88452 22.3022 3.10994 22.8623 3.56078C23.4223 4.01161 23.7005 4.65617 23.7005 5.50149ZM17.6424 6.18126H18.8223C19.0759 6.18126 19.2837 6.38907 19.2837 6.64267V9.52379C19.2837 9.75274 19.1182 9.94998 18.8893 9.98168C18.8893 9.98168 18.8893 9.98168 18.8857 9.98168C18.7167 10.0063 18.53 10.0169 18.3328 10.0169C17.9348 10.0169 17.6424 9.94645 17.4593 9.80204C17.2761 9.66116 17.181 9.40404 17.181 9.03421V6.63914C17.181 6.38555 17.3888 6.17774 17.6424 6.17774V6.18126ZM22.0451 6.18126H23.2391C23.4927 6.18126 23.7005 6.38907 23.7005 6.64267V9.52379C23.7005 9.75274 23.535 9.94998 23.306 9.98168C23.306 9.98168 23.3061 9.98168 23.3025 9.98168C23.1335 10.0063 22.9468 10.0169 22.7495 10.0169C22.3515 10.0169 22.0592 9.94645 21.869 9.80204C21.6788 9.66116 21.5837 9.40404 21.5837 9.03421V6.63914C21.5837 6.38555 21.7915 6.17774 22.0451 6.17774V6.18126Z" fill="#FCFDFE"/>
<path d="M28.163 9.6507C27.603 9.6507 27.0852 9.54503 26.6062 9.33018C26.1272 9.11533 25.7433 8.76311 25.4545 8.26296C25.1656 7.76634 25.0212 7.11474 25.0212 6.30817C25.0212 5.56147 25.1692 4.931 25.4686 4.42381C25.7679 3.91662 26.1871 3.5327 26.726 3.27206C27.2649 3.01142 27.8918 2.8811 28.6033 2.8811C29.114 2.8811 29.5895 2.95155 30.0298 3.08891C30.47 3.22628 30.8152 3.37421 31.0617 3.53623C31.2308 3.64893 31.3682 3.7863 31.4738 3.94127C31.5795 4.09625 31.6288 4.29349 31.6288 4.52947V8.99205H29.5965V4.7725C29.4909 4.71615 29.3676 4.66332 29.2197 4.61753C29.0717 4.57174 28.8921 4.54709 28.6737 4.54709C28.2194 4.54709 27.846 4.68797 27.5572 4.97327C27.2684 5.25856 27.124 5.70235 27.124 6.30817C27.124 6.97033 27.2578 7.42821 27.529 7.67829C27.8002 7.92836 28.1384 8.05516 28.5469 8.05516C28.8604 8.05516 29.121 8.00233 29.3288 7.89314C29.5366 7.78395 29.7163 7.6642 29.8677 7.53035L29.9241 9.2069C29.7268 9.33018 29.4838 9.43584 29.1985 9.52038C28.9132 9.60491 28.5681 9.64717 28.1595 9.64717L28.163 9.6507ZM29.6423 9.84794V8.52713H31.6323V9.90429C31.6323 10.5665 31.4774 11.1089 31.1709 11.5245C30.8645 11.9401 30.4454 12.2501 29.9206 12.4473C29.3958 12.6445 28.804 12.7467 28.1524 12.7467C27.6593 12.7467 27.2226 12.7044 26.8387 12.6199C26.4548 12.5353 26.1624 12.4262 25.9652 12.2923C25.6447 12.0845 25.4826 11.7886 25.4826 11.4118C25.4826 11.2145 25.5214 11.0349 25.6024 10.8799C25.6024 10.8799 25.6024 10.8799 25.6024 10.8764C25.7116 10.6616 25.9828 10.5946 26.2012 10.6933C26.3843 10.7778 26.5851 10.8553 26.8035 10.9222C27.1521 11.0314 27.522 11.0842 27.9129 11.0842C28.4448 11.0842 28.8639 10.9856 29.1774 10.7919C29.4909 10.5982 29.6458 10.2812 29.6458 9.84794H29.6423Z" fill="#FCFDFE"/>
<path d="M35.4681 7.30503L33.3513 7.26276V0.669278C33.4464 0.641101 33.5803 0.612924 33.7493 0.584746C33.9184 0.556569 34.1051 0.54248 34.3023 0.54248C34.7109 0.54248 35.0067 0.612924 35.1899 0.757332C35.373 0.898219 35.4681 1.15886 35.4681 1.53925V7.30855V7.30503ZM33.3513 6.16737L35.4681 6.20964V9.90438C35.373 9.93256 35.2392 9.95721 35.0701 9.98187C34.9011 10.0065 34.7144 10.0171 34.5172 10.0171C34.1191 10.0171 33.8268 9.94665 33.6366 9.80224C33.4464 9.66135 33.3513 9.40424 33.3513 9.03441V6.16385V6.16737Z" fill="#FCFDFE"/>
<path d="M39.3496 7.26259H37.2468V3.18393C37.3314 3.15575 37.4617 3.12757 37.6378 3.09939C37.8139 3.07122 38.0006 3.05713 38.1978 3.05713C38.6064 3.05713 38.8987 3.12757 39.0783 3.26494C39.258 3.4023 39.3496 3.66646 39.3496 4.0539V7.26611V7.26259ZM37.2468 6.1672H39.3496V9.90421C39.265 9.93239 39.1382 9.95704 38.9656 9.9817C38.7966 10.0064 38.6099 10.0169 38.4127 10.0169C38.0041 10.0169 37.7082 9.94648 37.5251 9.80207C37.3419 9.66118 37.2468 9.40406 37.2468 9.03424V6.16367V6.1672Z" fill="#FCFDFE"/>
<path d="M46.5841 7.93185C46.5841 8.62219 46.3235 9.1646 45.8022 9.55908C45.2809 9.95357 44.5237 10.1473 43.5269 10.1473C42.7485 10.1473 42.111 10.0346 41.6073 9.80563C41.1037 9.57669 40.8536 9.24209 40.8536 8.7983C40.8536 8.60106 40.8958 8.42495 40.9804 8.28054C41.0649 8.13261 41.1741 8.01638 41.3079 7.93185C41.5721 8.0833 41.8821 8.22418 42.2378 8.35098C42.5935 8.47778 42.9986 8.54118 43.4529 8.54118C44.1433 8.54118 44.492 8.34394 44.492 7.94593C44.492 7.77687 44.4286 7.63951 44.3088 7.54089C44.1855 7.44227 43.9813 7.3683 43.696 7.31899L43.1007 7.1781C42.3435 7.01608 41.7764 6.76953 41.403 6.43141C41.0297 6.0968 40.843 5.63187 40.843 5.0472C40.843 4.38503 41.1107 3.85671 41.6461 3.46222C42.1814 3.06774 42.9035 2.87402 43.8122 2.87402C44.2666 2.87402 44.6822 2.91981 45.0555 3.00787C45.4289 3.09944 45.7247 3.23681 45.9431 3.41996C46.1615 3.60311 46.2707 3.83557 46.2707 4.1103C46.2707 4.3005 46.2319 4.46604 46.158 4.60693C46.0805 4.74781 45.9818 4.86757 45.8586 4.96266C45.7529 4.89574 45.5944 4.8253 45.3831 4.74781C45.1718 4.67032 44.9393 4.61045 44.6857 4.56466C44.4356 4.51887 44.1996 4.49422 43.9813 4.49422C43.6396 4.49422 43.3755 4.54001 43.1853 4.62806C42.9951 4.71964 42.9 4.857 42.9 5.0472C42.9 5.17047 42.9528 5.27614 43.062 5.36771C43.1712 5.45929 43.3614 5.52973 43.6361 5.58961L44.2032 5.7305C45.045 5.92069 45.6543 6.1919 46.0206 6.54764C46.3904 6.90337 46.5736 7.36478 46.5736 7.93185H46.5841Z" fill="#FCFDFE"/>
<path d="M50.0217 7.26276H47.9189V0.669278C48.0035 0.641101 48.1303 0.612924 48.3029 0.584746C48.4719 0.556569 48.6586 0.54248 48.8558 0.54248C49.2644 0.54248 49.5603 0.612924 49.7434 0.757332C49.9266 0.898219 50.0217 1.15886 50.0217 1.53925V7.26628V7.26276ZM47.9189 6.16737H50.0217V9.90438C49.9266 9.93256 49.7927 9.95721 49.6237 9.98187C49.4546 10.0065 49.2679 10.0171 49.0707 10.0171C48.6727 10.0171 48.3803 9.94665 48.1972 9.80224C48.014 9.66135 47.9189 9.40424 47.9189 9.03441V6.16385V6.16737ZM54.442 7.01973H52.3252V5.75528C52.3252 5.31853 52.2125 5.00858 51.9906 4.82543C51.7687 4.64227 51.4869 4.54718 51.1452 4.54718C50.8423 4.54718 50.5711 4.60353 50.3281 4.71624C50.0851 4.82895 49.8808 4.95927 49.7082 5.10016L49.6518 3.39543C49.8702 3.27215 50.1414 3.15592 50.4619 3.04674C50.7825 2.93755 51.1382 2.88472 51.5292 2.88472C52.4308 2.88472 53.1388 3.11366 53.6601 3.57506C54.1813 4.03294 54.442 4.72329 54.442 5.64257V7.01973ZM52.3252 6.16737H54.442V9.90438C54.3469 9.93256 54.213 9.95721 54.044 9.98187C53.8749 10.0065 53.6882 10.0171 53.491 10.0171C53.0824 10.0171 52.7866 9.94665 52.6034 9.80224C52.4203 9.66135 52.3252 9.40424 52.3252 9.03441V6.16385V6.16737Z" fill="#FCFDFE"/>
<path d="M16.7301 18.2378V19.1113C16.7301 19.3649 16.5223 19.5727 16.2687 19.5727H15.0747C14.8211 19.5727 14.6133 19.3649 14.6133 19.1113V18.3083C14.6133 17.9596 14.5111 17.6989 14.3068 17.5334C14.1025 17.3678 13.8349 17.2833 13.5038 17.2833C13.2678 17.2833 13.0494 17.315 12.8487 17.3749C12.7606 17.4031 12.6761 17.4312 12.5951 17.4629C12.4189 17.5334 12.3098 17.7024 12.3098 17.8926V19.1078C12.3098 19.3614 12.102 19.5692 11.8484 19.5692H10.6684C10.4148 19.5692 10.207 19.3614 10.207 19.1078V17.3538C10.207 17.1178 10.2563 16.9205 10.355 16.7656C10.4536 16.6106 10.598 16.4697 10.7882 16.3464C11.0911 16.1386 11.4785 15.966 11.954 15.8287C12.426 15.6913 12.9473 15.6208 13.5179 15.6208C14.5428 15.6208 15.3318 15.8463 15.8918 16.2971C16.4518 16.7479 16.7301 17.3925 16.7301 18.2378ZM10.6684 18.9211H11.8484C12.102 18.9211 12.3098 19.1289 12.3098 19.3825V22.2636C12.3098 22.4926 12.1442 22.6898 11.9153 22.7215C11.9153 22.7215 11.9153 22.7215 11.9118 22.7215C11.7427 22.7462 11.556 22.7567 11.3588 22.7567C10.9608 22.7567 10.6684 22.6863 10.4853 22.5419C10.3021 22.401 10.207 22.1439 10.207 21.7741V19.379C10.207 19.1254 10.4148 18.9176 10.6684 18.9176V18.9211ZM15.0747 18.9211H16.2687C16.5223 18.9211 16.7301 19.1289 16.7301 19.3825V22.2636C16.7301 22.4926 16.5645 22.6898 16.3356 22.7215C16.3356 22.7215 16.3356 22.7215 16.3321 22.7215C16.163 22.7462 15.9763 22.7567 15.7791 22.7567C15.3811 22.7567 15.0887 22.6863 14.8985 22.5419C14.7084 22.401 14.6133 22.1439 14.6133 21.7741V19.379C14.6133 19.1254 14.8211 18.9176 15.0747 18.9176V18.9211Z" fill="#FCFDFE"/>
<path d="M20.513 17.0858H18.4103V13.4051C18.4948 13.3769 18.6251 13.3488 18.7942 13.3206C18.9632 13.2924 19.1499 13.2783 19.3472 13.2783C19.7557 13.2783 20.0516 13.3488 20.2347 13.4932C20.4179 13.6341 20.513 13.8947 20.513 14.2751V17.0893V17.0858ZM21.9888 15.6241C22.6052 15.6241 23.1652 15.7579 23.6653 16.0291C24.169 16.3003 24.567 16.7019 24.8593 17.2372C25.1517 17.7726 25.2996 18.4348 25.2996 19.2202C25.2996 20.0056 25.1446 20.6854 24.8382 21.2243C24.5318 21.7632 24.095 22.1753 23.5385 22.4535C22.9785 22.7318 22.3269 22.8727 21.5767 22.8727C20.9885 22.8727 20.4848 22.8022 20.0622 22.6578C19.6395 22.5169 19.2873 22.3514 19.002 22.1612C18.8012 22.0203 18.6533 21.8618 18.5547 21.6928C18.456 21.5237 18.4067 21.3229 18.4067 21.0975V16.5927H20.4954V20.9425C20.6081 21.0095 20.756 21.0693 20.9356 21.1257C21.1153 21.182 21.3196 21.2102 21.5485 21.2102C22.031 21.2102 22.4185 21.0447 22.7073 20.7136C22.9961 20.3825 23.1405 19.8859 23.1405 19.2202C23.1405 18.5545 22.9996 18.0579 22.7214 17.7479C22.4431 17.4415 22.0698 17.2865 21.6049 17.2865C21.302 17.2865 21.0307 17.3429 20.7948 17.4556C20.5588 17.5683 20.3545 17.6986 20.1854 17.8395L20.1291 16.1348C20.3474 16.0115 20.6151 15.8953 20.9321 15.7861C21.2491 15.6769 21.6013 15.6241 21.9923 15.6241H21.9888Z" fill="#FCFDFE"/>
<path d="M33.5168 19.2452C33.5168 19.9848 33.3689 20.6258 33.0695 21.1718C32.7701 21.7177 32.351 22.1368 31.8121 22.4292C31.2732 22.7215 30.6357 22.8695 29.9066 22.8695C29.1775 22.8695 28.5435 22.725 28.0011 22.4362C27.4622 22.1474 27.0431 21.7318 26.7437 21.1859C26.4443 20.6399 26.2964 19.9954 26.2964 19.2452C26.2964 18.4949 26.4478 17.868 26.7507 17.3256C27.0536 16.7867 27.4763 16.3675 28.0222 16.0682C28.5682 15.7688 29.1986 15.6208 29.9207 15.6208C30.6427 15.6208 31.2697 15.7688 31.805 16.0682C32.3404 16.3675 32.7596 16.7867 33.0625 17.3326C33.3654 17.8786 33.5168 18.5161 33.5168 19.2452ZM29.9066 17.2868C29.4593 17.2868 29.1071 17.4559 28.8464 17.7975C28.5858 18.1392 28.4555 18.6217 28.4555 19.2487C28.4555 19.8756 28.5823 20.3687 28.8394 20.7069C29.0965 21.045 29.4487 21.2105 29.9066 21.2105C30.3645 21.2105 30.7167 21.0415 30.9738 20.6998C31.2309 20.3582 31.3577 19.8756 31.3577 19.2487C31.3577 18.6217 31.2309 18.1533 30.9738 17.8046C30.7167 17.4594 30.3645 17.2868 29.9066 17.2868Z" fill="#FCFDFE"/>
<path d="M37.5778 15.6243C38.564 15.6243 39.3495 15.8321 39.9377 16.2442C40.5259 16.6563 40.8182 17.2938 40.8182 18.1567V21.383C40.8182 21.619 40.7548 21.8127 40.6351 21.9571C40.5118 22.105 40.3568 22.2283 40.1666 22.334C39.8813 22.503 39.5291 22.6404 39.1065 22.739C38.6838 22.8377 38.2048 22.887 37.6624 22.887C36.6973 22.887 35.926 22.6968 35.3518 22.3199C34.7777 21.9395 34.4924 21.376 34.4924 20.6293C34.4924 19.9847 34.6897 19.4916 35.0877 19.1429C35.4857 18.7977 36.0774 18.5864 36.8628 18.5089L38.7542 18.3117V18.1426C38.7542 17.8221 38.6274 17.5896 38.3774 17.4452C38.1273 17.3043 37.768 17.2304 37.3031 17.2304C36.9439 17.2304 36.5916 17.2726 36.2429 17.3572C36.021 17.41 35.8168 17.4699 35.6266 17.5368C35.3976 17.6143 35.137 17.5262 35.0243 17.3114C35.0243 17.3114 35.0243 17.3114 35.0243 17.3079C34.9433 17.1529 34.9045 16.9873 34.9045 16.8183C34.9045 16.4203 35.1229 16.1315 35.5596 15.9518C35.8344 15.8391 36.1549 15.7546 36.5177 15.7018C36.8805 15.6489 37.2362 15.6243 37.5778 15.6243ZM37.6659 21.3055C37.8843 21.3055 38.0991 21.2844 38.314 21.2421C38.5288 21.1998 38.6803 21.1505 38.7754 21.0942V19.7311L37.5814 19.8438C37.2608 19.8614 37.0037 19.9283 36.8135 20.0411C36.6233 20.1538 36.5282 20.3264 36.5282 20.5518C36.5282 20.7772 36.6198 20.9603 36.7994 21.0977C36.9791 21.2351 37.2679 21.3055 37.6659 21.3055Z" fill="#FCFDFE"/>
<path d="M44.5447 18.3258V19.4459H42.442V17.4136C42.442 17.1494 42.5054 16.924 42.6357 16.7373C42.7625 16.5542 42.9421 16.3886 43.1676 16.2478C43.481 16.0576 43.8579 15.9096 44.2982 15.8004C44.7384 15.6913 45.1998 15.6384 45.6824 15.6384C46.6475 15.6384 47.1335 15.9589 47.1335 16.6035C47.1335 16.755 47.1124 16.8958 47.0701 17.0297C47.0067 17.2234 46.8165 17.3467 46.6158 17.3255H46.5735C46.4361 17.3079 46.2882 17.3009 46.1262 17.3009C45.8409 17.3009 45.5591 17.3326 45.2738 17.3995H45.2668C44.8441 17.4981 44.5518 17.8891 44.5518 18.3258H44.5447ZM42.4385 18.907L44.5412 18.9493V22.644C44.4461 22.6722 44.3123 22.6968 44.1432 22.7215C43.9741 22.7461 43.7875 22.7567 43.5902 22.7567C43.1922 22.7567 42.8999 22.6863 42.7167 22.5419C42.5336 22.401 42.4385 22.1439 42.4385 21.774V18.9035V18.907Z" fill="#FCFDFE"/>
<path d="M52.3603 20.9672V16.6878H54.463V21.2349C54.463 21.4638 54.4137 21.654 54.3222 21.809C54.2271 21.964 54.0756 22.1049 53.8678 22.2281C53.6107 22.3972 53.2796 22.5486 52.8675 22.6754C52.4554 22.8022 51.9799 22.8656 51.4375 22.8656C50.6521 22.8656 49.9723 22.7318 49.3982 22.4676C48.8241 22.2035 48.3838 21.8019 48.0774 21.2666C47.7709 20.7312 47.616 20.0655 47.616 19.2695C47.616 18.4735 47.7745 17.7515 48.0915 17.2161C48.4084 16.6807 48.8382 16.2792 49.377 16.015C49.9159 15.7509 50.5147 15.617 51.1663 15.617C51.508 15.617 51.8109 15.6558 52.075 15.7297C52.3392 15.8072 52.5576 15.8953 52.7301 16.001V17.7339C52.5963 17.6211 52.4237 17.5155 52.2053 17.4204C51.987 17.3253 51.7369 17.2795 51.4516 17.2795C51.1205 17.2795 50.8247 17.3499 50.5711 17.4943C50.3139 17.6352 50.1167 17.8536 49.9758 18.1495C49.8349 18.4418 49.761 18.8187 49.761 19.273C49.761 19.9352 49.9089 20.4248 50.2083 20.7383C50.5077 21.0517 50.9127 21.2067 51.4234 21.2067C51.6312 21.2067 51.8179 21.182 51.9764 21.1292C52.1384 21.0764 52.2652 21.0236 52.3603 20.9672ZM54.463 17.0999L52.3603 17.114V13.4051C52.4448 13.3769 52.5752 13.3488 52.7442 13.3206C52.9133 13.2924 53.1 13.2783 53.2972 13.2783C53.7128 13.2783 54.0122 13.3488 54.1918 13.4932C54.3715 13.6341 54.463 13.8947 54.463 14.2751V17.1034V17.0999Z" fill="#FCFDFE"/>
<path d="M37.1165 1.13766C37.1165 0.817141 37.2292 0.545935 37.4511 0.327561C37.673 0.109187 37.9547 0 38.2964 0C38.638 0 38.9304 0.109187 39.1487 0.327561C39.3671 0.545935 39.4763 0.817141 39.4763 1.13766C39.4763 1.45817 39.3671 1.71881 39.1487 1.94775C38.9304 2.1767 38.6451 2.2894 38.2964 2.2894C37.9477 2.2894 37.673 2.1767 37.4511 1.94775C37.2292 1.71881 37.1165 1.45113 37.1165 1.13766Z" fill="url(#paint0_linear_101_232)"/>
<path d="M8.81245 18.3364C8.81245 19.3226 8.62225 20.1538 8.23833 20.8301C7.85442 21.5064 7.32962 22.0206 6.66041 22.3728C5.99119 22.7215 5.23745 22.8976 4.39213 22.8976C3.54682 22.8976 2.7966 22.7215 2.13091 22.3728C1.46874 22.0241 0.947461 21.5099 0.567068 20.8301C0.186674 20.1538 0 19.3226 0 18.3364C0 17.3502 0.193719 16.519 0.581156 15.8427C0.968594 15.1665 1.49692 14.6522 2.15908 14.3071C2.82125 13.9619 3.56443 13.7893 4.39213 13.7893C5.21984 13.7893 5.97711 13.9619 6.64632 14.3071C7.31553 14.6522 7.84385 15.1629 8.23129 15.8427C8.61873 16.519 8.81245 17.3502 8.81245 18.3364ZM6.5794 18.3364C6.5794 17.4277 6.38215 16.7338 5.99119 16.2619C5.59671 15.7899 5.06487 15.5504 4.39213 15.5504C3.7194 15.5504 3.2263 15.7864 2.82829 16.2548C2.43029 16.7233 2.23305 17.4171 2.23305 18.3364C2.23305 19.2557 2.43029 19.9637 2.82125 20.4321C3.21573 20.9005 3.74406 21.1365 4.40622 21.1365C5.06839 21.1365 5.59671 20.9005 5.99119 20.4321C6.38568 19.9637 6.5794 19.2627 6.5794 18.3364Z" fill="#FCFDFE"/>
<path d="M74.6732 9.68237L66.3504 16.4273C65.2937 17.2832 63.98 17.7869 62.6239 17.7587C62.233 17.7516 61.8561 17.7023 61.5461 17.5826C62.5993 19.7769 64.3427 21.5767 66.4913 22.7073C66.4913 20.749 67.171 18.847 68.4108 17.3325L74.6732 9.68237Z" fill="#FCFDFE"/>
<path d="M77.6848 6.02632C76.917 5.76921 76.0963 6.39263 75.4694 6.75189C74.4655 7.32952 73.5005 7.94942 72.627 8.71021C71.9542 9.29841 71.3167 9.75981 70.5278 10.1966C69.6825 10.6685 68.3793 10.2635 67.5163 10.0803C66.347 9.83378 65.1635 9.62597 63.966 9.59427C63.4201 9.57666 62.8706 9.59427 62.3282 9.63654C61.9478 9.66824 61.4547 9.67176 61.1976 10.0169C61.18 10.0381 61.0391 10.2564 61.1025 10.2881L67.7488 13.6659L75.1312 9.22444L70.5489 16.8534C70.4538 17.019 70.954 17.5825 71.0385 17.7129C71.7958 18.8963 72.472 20.2065 73.032 21.4886C73.2891 22.0768 73.4793 22.989 74.2683 23.0454C74.3458 23.0524 74.853 23.0947 74.8389 22.9468C74.5959 20.8124 74.3634 18.6709 74.1169 16.5329C74.0253 15.7616 73.8104 14.8775 73.9936 14.1308C74.145 13.5109 74.3282 13.2221 74.7579 12.7994C75.1946 12.3697 75.6067 11.9154 75.9836 11.4364C76.7303 10.4995 77.3678 9.46747 77.8257 8.36152C78.0687 7.77331 78.6111 6.3398 77.6918 6.03337L77.6848 6.02632Z" fill="#FCFDFE"/>
<path d="M83.0243 13.5743C83.0314 13.4933 83.0384 13.4158 83.0419 13.3348C83.049 13.2433 83.049 13.1482 83.0525 13.0531C83.0525 12.9756 83.0595 12.8981 83.0595 12.8206C83.0595 12.7995 83.0595 12.7783 83.0595 12.7572C83.0595 12.6445 83.0595 12.5353 83.056 12.4261C83.056 12.3381 83.056 12.25 83.049 12.1619C83.0454 12.0492 83.0349 11.9365 83.0278 11.8273C83.0208 11.7428 83.0173 11.6583 83.0102 11.5737C82.9997 11.4575 82.982 11.3413 82.968 11.2251C82.9574 11.1476 82.9503 11.0701 82.9398 10.9926C82.9222 10.8658 82.8975 10.7425 82.8729 10.6157C82.8623 10.5523 82.8517 10.4854 82.8376 10.422C82.8024 10.2565 82.7637 10.0909 82.7249 9.92538C82.7179 9.90424 82.7144 9.88311 82.7108 9.86198C82.6615 9.6753 82.6122 9.49215 82.5559 9.31252C82.5418 9.26673 82.5242 9.22447 82.5101 9.1822C82.4643 9.04484 82.422 8.91099 82.3727 8.77715C82.3516 8.71728 82.3269 8.6574 82.3023 8.59752C82.2565 8.48129 82.2142 8.36506 82.1649 8.25235C82.1367 8.18543 82.105 8.12203 82.0769 8.05863C82.0275 7.95297 81.9818 7.8473 81.9324 7.74164C81.9007 7.67472 81.8655 7.60779 81.8303 7.5444C81.7775 7.44578 81.7282 7.34363 81.6753 7.24501C81.6401 7.17809 81.5978 7.11117 81.5626 7.04777C81.5063 6.95267 81.4534 6.85757 81.3936 6.76248C81.3513 6.69556 81.309 6.63216 81.2703 6.56876C81.2104 6.47718 81.1505 6.3856 81.0906 6.29755C81.0484 6.23415 81.0026 6.17075 80.9568 6.10735C80.8934 6.0193 80.83 5.93125 80.7666 5.84671C80.7208 5.78332 80.6715 5.72344 80.6222 5.66356C80.5553 5.57903 80.4884 5.4945 80.4179 5.41349C80.3686 5.35361 80.3158 5.29726 80.2665 5.23738C80.196 5.15637 80.1221 5.07536 80.0516 4.99787C79.9988 4.94152 79.9459 4.88516 79.8896 4.82881C79.8156 4.75132 79.7381 4.67384 79.6607 4.59987C79.6043 4.54704 79.5479 4.49068 79.4916 4.43785C79.4141 4.36389 79.3331 4.29344 79.2521 4.21948C79.1922 4.16664 79.1358 4.11733 79.076 4.0645C78.995 3.99406 78.9104 3.92714 78.8259 3.86022C78.766 3.81091 78.7026 3.7616 78.6427 3.71581C78.5582 3.64889 78.4702 3.58549 78.3821 3.52209C78.3187 3.4763 78.2553 3.43051 78.1919 3.38472C78.1039 3.32485 78.0123 3.26497 77.9207 3.20509C77.8538 3.16283 77.7904 3.12056 77.7235 3.0783C77.6319 3.02194 77.5368 2.96559 77.4452 2.91276C77.3783 2.87401 77.3114 2.83527 77.2409 2.79652C77.1458 2.74369 77.0472 2.69438 76.9521 2.64155C76.8817 2.60633 76.8147 2.57111 76.7443 2.53588C76.6457 2.48657 76.5435 2.44079 76.4449 2.395C76.3745 2.3633 76.304 2.3316 76.2336 2.2999C76.1314 2.25411 76.0258 2.21537 75.9236 2.1731C75.8532 2.14492 75.7828 2.11675 75.7088 2.08857C75.6031 2.04983 75.4939 2.0146 75.3883 1.97586C75.3178 1.95121 75.2439 1.92655 75.1734 1.90189C75.0607 1.86667 74.948 1.83497 74.8353 1.80327C74.7648 1.78214 74.6944 1.76101 74.624 1.7434C74.5042 1.7117 74.3845 1.68704 74.2612 1.65887C74.1943 1.64478 74.1309 1.62717 74.0639 1.61308C73.9231 1.5849 73.7822 1.56025 73.6413 1.53559C73.592 1.52855 73.5427 1.51798 73.4969 1.51094C73.3067 1.48276 73.113 1.4581 72.9157 1.43697C72.884 1.43697 72.8523 1.43345 72.8241 1.42993C72.6586 1.41584 72.4966 1.40175 72.331 1.3947C72.2606 1.3947 72.1901 1.3947 72.1197 1.38766C71.9929 1.38414 71.8661 1.38062 71.7358 1.38062C71.6548 1.38062 71.5773 1.38414 71.4963 1.38766C71.3765 1.38766 71.2603 1.39118 71.1405 1.39823C71.1265 1.39823 71.1088 1.39823 71.0948 1.39823C70.9644 1.40527 70.8341 1.41936 70.7073 1.42993C70.6721 1.42993 70.6334 1.43345 70.5981 1.44049C70.4115 1.4581 70.2283 1.48276 70.0452 1.51094C70.0205 1.51446 69.9923 1.5215 69.9677 1.52502C69.8197 1.54968 69.6718 1.57433 69.5239 1.60603C69.4076 1.63069 69.2914 1.65534 69.1787 1.68352C69.1259 1.69761 69.073 1.70818 69.0202 1.71874C68.8723 1.75396 68.7279 1.79623 68.5835 1.8385C68.5658 1.84202 68.5482 1.84906 68.5341 1.85258C64.8394 2.96207 61.9125 5.92772 60.8699 9.65769C60.8523 9.71757 60.8347 9.77745 60.8171 9.83732C60.7995 9.90424 60.7854 9.97116 60.7678 10.0381C60.7396 10.1508 60.7114 10.2635 60.6903 10.3797C60.6797 10.4326 60.6692 10.4889 60.6586 10.5418C60.6339 10.6686 60.6093 10.7954 60.5917 10.9257C60.5846 10.9785 60.5776 11.0349 60.567 11.0912C60.5494 11.218 60.5318 11.3448 60.5177 11.4716C60.5107 11.535 60.5036 11.6019 60.5001 11.6653C60.4931 11.7358 60.486 11.8062 60.479 11.8767C60.4754 11.9365 60.4719 11.9929 60.4684 12.0528C60.4684 12.088 60.4649 12.1267 60.4614 12.1619C60.4543 12.3345 60.4473 12.5036 60.4473 12.6762C60.4473 12.7008 60.4473 12.729 60.4473 12.7537C60.4473 12.9051 60.4508 13.0601 60.4578 13.2116C60.4578 13.2503 60.4578 13.2855 60.4614 13.3243C60.4719 13.4898 60.4825 13.6589 60.5001 13.8209C60.5001 13.8561 60.5071 13.8913 60.5107 13.9266C60.5248 14.0674 60.5424 14.2083 60.5635 14.3457C60.5705 14.3809 60.5741 14.4197 60.5776 14.4549C60.6022 14.6134 60.6304 14.7683 60.6621 14.9268C60.6727 14.9726 60.6797 15.0149 60.6903 15.0607C60.7185 15.191 60.7467 15.3213 60.7783 15.4481C60.7854 15.4833 60.796 15.5186 60.803 15.5538C60.8418 15.7052 60.884 15.8532 60.9298 16.0011C60.9439 16.0469 60.958 16.0927 60.9721 16.1385C61.0143 16.2758 61.0636 16.4132 61.1094 16.5506C61.1165 16.5682 61.12 16.5823 61.127 16.5999C61.1834 16.7548 61.2433 16.9063 61.3067 17.0578C61.3172 17.0859 61.3313 17.1141 61.3419 17.1423C61.4053 17.2902 61.4722 17.4417 61.5427 17.5861C61.5427 17.5861 61.5427 17.5861 61.5427 17.5896C61.8491 17.7093 62.226 17.7587 62.6204 17.7657C63.9765 17.7939 65.2938 17.2867 66.3469 16.4343L74.6698 9.68939L68.4074 17.3395C67.1675 18.8576 66.4878 20.756 66.4878 22.7143C66.5195 22.732 66.5547 22.746 66.5864 22.7637C66.7273 22.8341 66.8682 22.9045 67.0126 22.9715C67.0795 23.0032 67.1464 23.0349 67.2169 23.063C67.3507 23.1229 67.4881 23.1757 67.6254 23.2321C67.6888 23.2568 67.7558 23.2849 67.8191 23.3096C68.0129 23.38 68.2066 23.447 68.4038 23.5103C68.4672 23.5315 68.5306 23.5456 68.594 23.5632C68.7384 23.6054 68.8828 23.6442 69.0308 23.6794C69.1118 23.7005 69.1928 23.7182 69.2738 23.7358C69.4112 23.7675 69.5521 23.7956 69.6894 23.8203C69.7669 23.8344 69.8444 23.8485 69.9219 23.8626C70.1015 23.8907 70.2776 23.9154 70.4608 23.9365C70.4995 23.9401 70.5383 23.9471 70.577 23.9506C70.7954 23.9718 71.0173 23.9894 71.2392 23.9999C71.3026 23.9999 71.3695 23.9999 71.4329 24.0035C71.5949 24.007 71.7604 24.0105 71.926 24.007C71.9647 24.007 72.0035 24.007 72.0387 24.007C72.088 24.007 72.1373 23.9999 72.1866 23.9999C72.2782 23.9964 72.3733 23.9929 72.4649 23.9858C72.5565 23.9788 72.6516 23.9718 72.7431 23.9647C72.8453 23.9541 72.9509 23.9471 73.0531 23.933C73.127 23.926 73.1975 23.9154 73.2715 23.9048C73.3983 23.8872 73.5215 23.8696 73.6483 23.8485C73.6906 23.8414 73.7293 23.8344 73.7716 23.8273C78.6005 22.9433 82.3903 18.9456 82.9821 14.0357C82.9856 14.0005 82.9926 13.9618 82.9961 13.9266C83.0102 13.8103 83.0173 13.6976 83.0278 13.5814L83.0243 13.5743ZM77.8186 8.35449C77.3607 9.46397 76.7232 10.4924 75.9765 11.4293C75.5961 11.9084 75.184 12.3627 74.7508 12.7924C74.3211 13.2151 74.1379 13.5039 73.9865 14.1238C73.8033 14.8705 74.0182 15.7546 74.1097 16.5259C74.3563 18.6639 74.5887 20.8053 74.8318 22.9398C74.8459 23.0877 74.3387 23.0419 74.2612 23.0384C73.4722 22.9785 73.2855 22.0663 73.0249 21.4816C72.4649 20.1995 71.7886 18.8893 71.0314 17.7058C70.9468 17.5755 70.4467 17.012 70.5418 16.8464L75.1241 9.21742L67.7417 13.6589L61.0953 10.2811C61.0319 10.2494 61.1728 10.0346 61.1904 10.0099C61.4476 9.66826 61.9407 9.66121 62.3211 9.62951C62.867 9.58373 63.4129 9.56964 63.9589 9.58725C65.1564 9.61895 66.3434 9.82676 67.5092 10.0733C68.3721 10.26 69.6753 10.6615 70.5206 10.1895C71.3096 9.75279 71.9471 9.29139 72.6199 8.70319C73.4933 7.93888 74.4619 7.3225 75.4622 6.74487C76.0892 6.3856 76.9098 5.76571 77.6777 6.0193C78.597 6.32573 78.0545 7.75925 77.8115 8.34745L77.8186 8.35449Z" fill="url(#paint1_linear_101_232)"/>
</g>
<defs>
<linearGradient id="paint0_linear_101_232" x1="37.1165" y1="1.1447" x2="39.4763" y2="1.1447" gradientUnits="userSpaceOnUse">
<stop stop-color="#C13A53"/>
<stop offset="1" stop-color="#F14968"/>
</linearGradient>
<linearGradient id="paint1_linear_101_232" x1="60.4367" y1="12.6903" x2="83.0631" y2="12.6903" gradientUnits="userSpaceOnUse">
<stop stop-color="#F25976"/>
<stop offset="1" stop-color="#F14968"/>
</linearGradient>
<clipPath id="clip0_101_232">
<rect width="83.0631" height="24" fill="white"/>
</clipPath>
</defs>
</svg>
